<svg xmlns="http://www.w3.org/2000/svg" width="24" height="24" viewBox="0 0 24 24">
  <g fill="#FFF" fill-rule="evenodd" transform="translate(1 1)">
    <rect width="30" height="1" x="-4" y="10.5" rx=".5" transform="rotate(135 11 11)"/>
    <rect width="11" height="1" x="12.218" y="17.218" transform="rotate(-135 17.718 17.718)"/>
    <rect width="11" height="1" x="-1.251" y="3.749" transform="rotate(-135 4.25 4.25)"/>
    <path d="M2.5,-2 L2.5,-2 C2.77614237,-2 3,-1.77614237 3,-1.5 L3,3 L2,3 L2,-1.5 C2,-1.77614237 2.22385763,-2 2.5,-2 Z" transform="rotate(-90 2.5 .5)"/>
    <path d="M0.5,0 L0.5,0 C0.776142375,-5.07265313e-17 1,0.223857625 1,0.5 L1,5 L0,5 L0,0.5 C-3.38176876e-17,0.223857625 0.223857625,5.07265313e-17 0.5,0 Z"/>
    <path d="M2.5,19 L2.5,19 C2.77614237,19 3,19.2238576 3,19.5 L3,24 L2,24 L2,19.5 C2,19.2238576 2.22385763,19 2.5,19 Z" transform="matrix(0 1 1 0 -19 19)"/>
    <path d="M0.5,17 L0.5,17 C0.776142375,17 1,17.2238576 1,17.5 L1,22 L0,22 L0,17.5 C-3.38176876e-17,17.2238576 0.223857625,17 0.5,17 Z" transform="matrix(1 0 0 -1 0 39)"/>
    <path d="M19.5,-2 L19.5,-2 C19.7761424,-2 20,-1.77614237 20,-1.5 L20,3 L19,3 L19,-1.5 C19,-1.77614237 19.2238576,-2 19.5,-2 Z" transform="matrix(0 -1 -1 0 20 20)"/>
    <path d="M21.5,0 L21.5,0 C21.7761424,-5.07265313e-17 22,0.223857625 22,0.5 L22,5 L21,5 L21,0.5 C21,0.223857625 21.2238576,5.07265313e-17 21.5,0 Z" transform="matrix(-1 0 0 1 43 0)"/>
    <path d="M19.5,19 L19.5,19 C19.7761424,19 20,19.2238576 20,19.5 L20,24 L19,24 L19,19.5 C19,19.2238576 19.2238576,19 19.5,19 Z" transform="rotate(90 19.5 21.5)"/>
    <path d="M21.5,17 L21.5,17 C21.7761424,17 22,17.2238576 22,17.5 L22,22 L21,22 L21,17.5 C21,17.2238576 21.2238576,17 21.5,17 Z" transform="rotate(180 21.5 19.5)"/>
  </g>
</svg>
