<svg xmlns="http://www.w3.org/2000/svg" width="24" height="24" viewBox="0 0 24 24">
  <path fill="#FFF" d="M1.4979466,12.0452679 L1.45267873,12.5432145 L0.456785524,12.4526787 L0.502053397,11.9547321 C1.19109097,4.3753188 2.95259952,0.5 6,0.5 C8.87679075,0.5 10.1395587,3.27808945 12.4823819,11.8684413 C14.6395587,19.7780894 15.8767907,22.5 18,22.5 C20.2859329,22.5 21.8577576,19.0419855 22.5020534,11.9547321 L22.5473213,11.4567855 L23.5432145,11.5473213 L23.4979466,12.0452679 C22.808909,19.6246812 21.0474005,23.5 18,23.5 C15.1232093,23.5 13.8604413,20.7219106 11.5176181,12.1315587 C9.36044132,4.22191055 8.12320925,1.5 6,1.5 C3.71406715,1.5 2.14224236,4.95801454 1.4979466,12.0452679 Z"/>
</svg>
