<svg xmlns="http://www.w3.org/2000/svg" width="24" height="24" viewBox="0 0 24 24">
  <path fill="none" stroke="#FFF" stroke-linecap="round" d="M21.7731669,5 C21.7731669,4 21.7731669,3 21.7731669,2 L21.7731669,2 C21.7731669,1.44771525 21.3254516,1 20.7731669,1 L2.03371857,1 C1.48143382,1 1.03371857,1.44771525 1.03371857,2 C1.03371857,2.24876605 1.12644035,2.48860083 1.2937785,2.67267279 L9.16164615,11.3273272 C9.50839272,11.7087484 9.50839272,12.2912516 9.16164615,12.6726728 L1.2937785,21.3273272 C0.922271575,21.7359848 0.952388161,22.3684331 1.36104578,22.7399401 C1.54511775,22.9072782 1.78495253,23 2.03371857,23 L20.7731669,23 C21.3254516,23 21.7731669,22.5522847 21.7731669,22 L21.7731669,19"/>
</svg>
