<svg xmlns="http://www.w3.org/2000/svg" width="24" height="24" viewBox="0 0 24 24">
  <path fill="#FFF" d="M22.2731669,5 L21.2731669,5 L21.2731669,2 C21.2731669,1.72385763 21.0493092,1.5 20.7731669,1.5 L2.03371857,1.5 C1.7575762,1.5 1.53371857,1.72385763 1.53371857,2 C1.53371857,2.12438302 1.58007946,2.24430041 1.66374854,2.3363364 L9.53161618,10.9909908 C10.051736,11.5631226 10.051736,12.4368774 9.53161618,13.0090092 L1.66374854,21.6636636 C1.47799507,21.8679924 1.49305337,22.1842166 1.69738218,22.36997 C1.78941816,22.4536391 1.90933555,22.5 2.03371857,22.5 L20.7731669,22.5 C21.0493092,22.5 21.2731669,22.2761424 21.2731669,22 L21.2731669,19 L22.2731669,19 L22.2731669,22 C22.2731669,22.8284271 21.601594,23.5 20.7731669,23.5 L2.03371857,23.5 C1.66056951,23.5 1.30081733,23.3609173 1.02470938,23.1099101 C0.411722955,22.5526497 0.366548075,21.6039772 0.923808464,20.9909908 L8.79167611,12.3363364 C8.9650494,12.1456258 8.9650494,11.8543742 8.79167611,11.6636636 L0.923808464,3.00900919 C0.672801238,2.73290124 0.533718574,2.37314907 0.533718574,2 C0.533718574,1.17157288 1.20529145,0.5 2.03371857,0.5 L20.7731669,0.5 C21.601594,0.5 22.2731669,1.17157288 22.2731669,2 L22.2731669,5 Z"/>
</svg>
