<svg xmlns="http://www.w3.org/2000/svg" width="160" height="160" viewBox="0 0 160 160">
  <g fill="none" fill-rule="evenodd" transform="translate(-31 -30)">
    <rect width="103.945" height="1" x="65.825" y="117.298" fill="#FFF" transform="rotate(-45 117.798 117.798)"/>
    <rect width="96.167" height="1" x="76.214" y="124.798" fill="#FFF" transform="rotate(-45 124.298 125.298)"/>
    <rect width="83.439" height="1" x="90.078" y="132.298" fill="#FFF" transform="rotate(-45 131.798 132.798)"/>
    <rect width="60.104" height="1" x="109.302" y="139.354" fill="#FFF" transform="rotate(-45 139.354 139.854)"/>
    <path stroke="#FFF" stroke-linecap="round" stroke-width="2" d="M183.561655,136 C172.853905,166.295002 143.961689,188 110,188 C66.9217895,188 32,153.07821 32,110 C32,66.9217895 66.9217895,32 110,32 C144.334215,32 173.487132,54.1837736 183.90743,85"/>
    <path fill="#FFF" d="M114.032058,46.7880487 C127.421445,47.363778 140.518509,52.8239901 150.52303,62.8285114 C171.968443,84.2739238 171.968443,119.043807 150.52303,140.48922 C140.395432,150.616818 127.296207,155.961657 114.032058,156.523737 L114.032058,179.319574 C70.9538478,179.319574 36.0320583,144.397784 36.0320583,101.319574 C36.0320583,58.2413635 70.9538478,23.319574 114.032058,23.319574 L114.032058,46.7880487 Z M114.032058,48.7899584 L114.032058,154.521862 C126.784004,153.961021 139.371754,148.812069 149.108817,139.075006 C169.773181,118.410642 169.773181,84.9070888 149.108817,64.242725 C139.489897,54.6238055 126.904079,49.3643595 114.032058,48.7899584 Z M114.032058,46.7880487 C105.220401,46.4091569 96.2821374,48.145762 88.0154138,52.0948237 C87.5170712,52.3328849 87.3060714,52.929858 87.5441325,53.4282006 C87.7821937,53.9265432 88.3791668,54.137543 88.8775094,53.8994819 C96.8697338,50.08155 105.513568,48.4098293 114.032058,48.7899584 L114.032058,46.7880487 Z M114.032058,154.521862 C99.7213426,155.151259 85.2038362,150.002307 74.2765355,139.075006 C58.1078411,122.906312 54.2703475,98.3691971 64.2470739,78.1982337 C64.4919256,77.7031922 64.2891066,77.1033902 63.7940651,76.8585386 C63.2990236,76.6136869 62.6992216,76.8165059 62.45437,77.3115474 C52.1001818,98.2456637 56.082612,123.70951 72.8623219,140.48922 C84.1801358,151.807034 99.2090805,157.151873 114.032058,156.523737 L114.032058,154.521862 Z" transform="rotate(45 101.32 101.32)"/>
  </g>
</svg>
