<svg xmlns="http://www.w3.org/2000/svg" width="24" height="24" viewBox="0 0 24 24">
  <path fill="#FFF" fill-rule="evenodd" d="M0.5,18 L17.5,18 C17.7761424,18 18,18.2238576 18,18.5 C18,18.7761424 17.7761424,19 17.5,19 L0.5,19 C0.223857625,19 3.38176876e-17,18.7761424 0,18.5 C-3.38176876e-17,18.2238576 0.223857625,18 0.5,18 Z M0.5,4 L11.5,4 C11.7761424,4 12,4.22385763 12,4.5 C12,4.77614237 11.7761424,5 11.5,5 L0.5,5 C0.223857625,5 3.38176876e-17,4.77614237 0,4.5 C-3.38176876e-17,4.22385763 0.223857625,4 0.5,4 Z M0.5,11 L23.5,11 C23.7761424,11 24,11.2238576 24,11.5 C24,11.7761424 23.7761424,12 23.5,12 L0.5,12 C0.223857625,12 3.38176876e-17,11.7761424 0,11.5 C-3.38176876e-17,11.2238576 0.223857625,11 0.5,11 Z"/>
</svg>
